
<svg xmlns="http://www.w3.org/2000/svg" width="146" height="166" fill="none"><path fill="url(#a)" fill-rule="evenodd" d="M51.845 39.88c.657-1.425 1.426-2.533 1.935-3.117a12.26 12.26 0 0 1-.531 3.687 12.256 12.256 0 0 1 3.066 2.114c-.773-.024-2.109-.211-3.601-.697-.688 1.517-1.558 2.565-2.128 3.052.038-1.277.307-2.5.684-3.604-1.066-.473-2.147-1.107-3.11-1.945.745-.088 2.104-.015 3.685.51Z" clip-rule="evenodd"/><path fill="url(#b)" fill-rule="evenodd" d="M46.654 25.598c.437-.95.95-1.686 1.287-2.075a8.157 8.157 0 0 1-.353 2.454c.673.325 1.373.78 2.041 1.407-.515-.016-1.404-.14-2.397-.464-.458 1.01-1.037 1.707-1.416 2.032.025-.85.204-1.665.455-2.4a8.222 8.222 0 0 1-2.07-1.294c.496-.058 1.4-.01 2.453.34Z" clip-rule="evenodd"/><path fill="url(#c)" fill-rule="evenodd" d="M32.603 11.4c.657-1.425 1.426-2.533 1.935-3.117a12.256 12.256 0 0 1-.531 3.687 12.257 12.257 0 0 1 3.066 2.113c-.773-.023-2.109-.21-3.601-.697-.688 1.518-1.558 2.565-2.128 3.053.038-1.277.307-2.5.684-3.604-1.066-.473-2.147-1.107-3.11-1.946.745-.087 2.104-.014 3.685.511Z" clip-rule="evenodd"/><path fill="url(#d)" fill-rule="evenodd" d="M30.377 43.365c.966-2.097 2.098-3.727 2.846-4.586a18.035 18.035 0 0 1-.781 5.424 18.033 18.033 0 0 1 4.511 3.11c-1.138-.035-3.103-.31-5.299-1.026-1.012 2.233-2.291 3.774-3.13 4.492.056-1.879.452-3.68 1.007-5.304-1.57-.695-3.16-1.627-4.577-2.861 1.097-.129 3.097-.021 5.423.751Z" clip-rule="evenodd"/><circle cx="36.19" cy="29.009" r=".847" fill="#2F235A" transform="rotate(21.387 36.19 29.01)"/><circle cx="57.15" cy="18.365" r=".847" fill="#FE9076" transform="rotate(21.387 57.15 18.365)"/><circle cx="16.915" cy="22.99" r=".847" fill="#FFA400" transform="rotate(21.387 16.915 22.99)"/><circle cx="35.093" cy="57.075" r=".847" fill="#23BB86" transform="rotate(21.387 35.093 57.075)"/><path stroke="#FE9076" stroke-linecap="round" stroke-width=".737" d="M56.507 14.32C55.684 11.173 52.711 3.98 47.41.367"/><path stroke="#FFA400" stroke-linecap="round" stroke-width=".737" d="M14.417 19.575c-2.05-2.525-7.728-7.848-14.049-8.948"/><path stroke="#23BB86" stroke-linecap="round" stroke-width=".737" d="M31.491 58.305c-1.816.662-6.388 2.773-10.146 5.916"/><path fill="url(#e)" fill-rule="evenodd" d="M93.796 39.88c-.657-1.425-1.426-2.533-1.934-3.117a12.26 12.26 0 0 0 .53 3.687 12.256 12.256 0 0 0-3.066 2.114c.774-.024 2.11-.211 3.602-.697.688 1.517 1.557 2.565 2.128 3.052-.039-1.277-.308-2.5-.685-3.604 1.067-.473 2.147-1.107 3.11-1.945-.744-.088-2.104-.015-3.685.51Z" clip-rule="evenodd"/><path fill="url(#f)" fill-rule="evenodd" d="M98.987 25.598c-.437-.95-.949-1.686-1.287-2.075-.007.917.134 1.74.353 2.454a8.163 8.163 0 0 0-2.041 1.407c.515-.016 1.404-.14 2.397-.464.458 1.01 1.037 1.707 1.417 2.032a8.222 8.222 0 0 0-.456-2.4 8.236 8.236 0 0 0 2.071-1.294c-.496-.058-1.401-.01-2.454.34Z" clip-rule="evenodd"/><path fill="url(#g)" fill-rule="evenodd" d="M113.038 11.4c-.657-1.425-1.426-2.533-1.934-3.117-.01 1.377.202 2.613.531 3.687a12.242 12.242 0 0 0-3.067 2.113c.774-.023 2.109-.21 3.602-.697.688 1.518 1.557 2.565 2.128 3.053-.039-1.277-.308-2.5-.685-3.604 1.067-.473 2.147-1.107 3.111-1.946-.745-.087-2.105-.014-3.686.511Z" clip-rule="evenodd"/><path fill="url(#h)" fill-rule="evenodd" d="M115.264 43.365c-.966-2.097-2.098-3.727-2.846-4.586a18.04 18.04 0 0 0 .782 5.424 18.024 18.024 0 0 0-4.512 3.11c1.138-.035 3.103-.31 5.299-1.026 1.012 2.233 2.292 3.774 3.131 4.492-.057-1.879-.452-3.68-1.008-5.304 1.57-.695 3.16-1.627 4.577-2.861-1.096-.129-3.097-.021-5.423.751Z" clip-rule="evenodd"/><circle cx=".847" cy=".847" r=".847" fill="#2F235A" transform="scale(-1 1) rotate(21.387 -128.874 -277.128)"/><circle cx=".847" cy=".847" r=".847" fill="#FE9076" transform="scale(-1 1) rotate(21.387 -90.21 -226.95)"/><circle cx=".847" cy=".847" r=".847" fill="#FFA400" transform="scale(-1 1) rotate(21.387 -122.572 -331.176)"/><circle cx=".847" cy=".847" r=".847" fill="#23BB86" transform="scale(-1 1) rotate(21.387 -203.737 -266)"/><path stroke="#FE9076" stroke-linecap="round" stroke-width=".737" d="M89.134 14.32c.824-3.146 3.796-10.34 9.098-13.952"/><path stroke="#FFA400" stroke-linecap="round" stroke-width=".737" d="M131.225 19.575c2.049-2.525 7.728-7.848 14.048-8.948"/><path stroke="#23BB86" stroke-linecap="round" stroke-width=".737" d="M114.15 58.305c1.816.662 6.388 2.773 10.147 5.916"/><path fill="url(#i)" d="M27.895 103.632h89.85v62.11h-89.85z"/><mask id="j" width="91" height="63" x="27" y="103" maskUnits="userSpaceOnUse" style="mask-type:alpha"><path fill="#C4C4C4" d="M27.895 103.632h89.85v62.11h-89.85z"/></mask><g mask="url(#j)"><path fill="#000" fill-opacity=".07" d="M32.147 102.051h61.182L79.5 126.062H18.318l13.829-24.011Z"/><path fill="url(#k)" d="M88.997 103.633h89.85v62.11h-89.85z"/></g><path fill="url(#l)" d="M27.816 103.632h61.182l-11.819 19.723h-61.18l11.818-19.723Z"/><mask id="m" width="30" height="63" x="88" y="103" maskUnits="userSpaceOnUse" style="mask-type:alpha"><path fill="#C4C4C4" d="M88.998 103.632h28.748v62.11H88.998z"/></mask><g mask="url(#m)"><path fill="#000" fill-opacity=".07" d="M114.246 103.529H85.453l13.53 22.707h28.792l-13.529-22.707Z"/></g><path fill="url(#n)" d="M117.791 103.632H88.998l11.818 19.723h28.793l-11.818-19.723Z"/><circle cx="57.746" cy="87.813" r="8.491" fill="url(#o)"/><circle cx="90.948" cy="71.117" r="8.205" fill="url(#p)"/><circle cx="59.621" cy="56.296" r="6.616" fill="url(#q)"/><circle cx="84.963" cy="41.157" r="5.985" fill="url(#r)"/><circle cx="75.222" cy="63.58" r="1.65" fill="#FFA800" fill-opacity=".23"/><circle cx="100.802" cy="51.33" r="1.65" fill="#FFA800" fill-opacity=".23"/><circle cx="61.271" cy="31.621" r="1.65" fill="#FFA800" fill-opacity=".23"/><circle cx="83.313" cy="91.477" r="1.65" fill="#FFA800" fill-opacity=".23"/><circle cx="45.162" cy="65.23" r="1.65" fill="#FFA800" fill-opacity=".23"/><path fill="url(#s)" d="M117.958 103.926H27.824L13.982 18.578H134.58l-16.622 85.348Z"/><defs><linearGradient id="a" x1="53.53" x2="50.531" y1="37.667" y2="45.325" gradientUnits="userSpaceOnUse"><stop stop-color="#FFE89E"/><stop offset="1" stop-color="#FFBF1A"/></linearGradient><linearGradient id="b" x1="47.775" x2="45.779" y1="24.124" y2="29.221" gradientUnits="userSpaceOnUse"><stop stop-color="#FFE89E"/><stop offset="1" stop-color="#FFBF1A"/></linearGradient><linearGradient id="c" x1="34.288" x2="31.289" y1="9.186" y2="16.844" gradientUnits="userSpaceOnUse"><stop stop-color="#FFE89E"/><stop offset="1" stop-color="#FFBF1A"/></linearGradient><linearGradient id="d" x1="32.855" x2="28.443" y1="40.108" y2="51.375" gradientUnits="userSpaceOnUse"><stop stop-color="#FFE89E"/><stop offset="1" stop-color="#FFBF1A"/></linearGradient><linearGradient id="e" x1="92.112" x2="95.111" y1="37.667" y2="45.325" gradientUnits="userSpaceOnUse"><stop stop-color="#FFE89E"/><stop offset="1" stop-color="#FFBF1A"/></linearGradient><linearGradient id="f" x1="97.866" x2="99.862" y1="24.124" y2="29.221" gradientUnits="userSpaceOnUse"><stop stop-color="#FFE89E"/><stop offset="1" stop-color="#FFBF1A"/></linearGradient><linearGradient id="g" x1="111.354" x2="114.353" y1="9.186" y2="16.844" gradientUnits="userSpaceOnUse"><stop stop-color="#FFE89E"/><stop offset="1" stop-color="#FFBF1A"/></linearGradient><linearGradient id="h" x1="112.786" x2="117.198" y1="40.108" y2="51.375" gradientUnits="userSpaceOnUse"><stop stop-color="#FFE89E"/><stop offset="1" stop-color="#FFBF1A"/></linearGradient><linearGradient id="i" x1="57.91" x2="22.099" y1="92.133" y2="190.765" gradientUnits="userSpaceOnUse"><stop stop-color="#FFD481"/><stop offset="1" stop-color="#FA620C"/></linearGradient><linearGradient id="k" x1="43.225" x2="151.905" y1="99.693" y2="215.833" gradientUnits="userSpaceOnUse"><stop stop-color="#FFD481"/><stop offset=".833" stop-color="#FA620C"/></linearGradient><linearGradient id="l" x1="29.075" x2="26.167" y1="96.584" y2="138.606" gradientUnits="userSpaceOnUse"><stop stop-color="#FFD481"/><stop offset="1" stop-color="#FA620C"/></linearGradient><linearGradient id="n" x1="122.334" x2="127.506" y1="96.584" y2="138.164" gradientUnits="userSpaceOnUse"><stop stop-color="#FFD481"/><stop offset="1" stop-color="#FA620C"/></linearGradient><linearGradient id="o" x1="58.389" x2="56.774" y1="76.519" y2="99.438" gradientUnits="userSpaceOnUse"><stop stop-color="#FF9F81"/><stop offset="1" stop-color="#F53838"/></linearGradient><linearGradient id="p" x1="91.569" x2="90.008" y1="60.205" y2="82.351" gradientUnits="userSpaceOnUse"><stop stop-color="#FF9F81"/><stop offset="1" stop-color="#F53838"/></linearGradient><linearGradient id="q" x1="60.122" x2="58.863" y1="47.496" y2="65.355" gradientUnits="userSpaceOnUse"><stop stop-color="#FF9F81"/><stop offset="1" stop-color="#F53838"/></linearGradient><linearGradient id="r" x1="85.416" x2="84.277" y1="33.196" y2="49.352" gradientUnits="userSpaceOnUse"><stop stop-color="#FF9F81"/><stop offset="1" stop-color="#F53838"/></linearGradient><linearGradient id="s" x1="73.29" x2="73.29" y1="18.578" y2="199.902" gradientUnits="userSpaceOnUse"><stop stop-color="#fff" stop-opacity="0"/><stop offset="1" stop-color="#FE9277"/></linearGradient></defs></svg>